<svg width="177" height="41" viewBox="0 0 177 41" fill="none" xmlns="http://www.w3.org/2000/svg">
<path d="M68.2035 12.9755C70.8495 12.9755 72.7331 13.9632 74.4373 15.2651L76.59 11.3145C74.2131 9.51878 71.8362 8.35156 68.2035 8.35156C60.2655 8.35156 55.3323 13.9183 55.3323 20.4727C55.3323 27.027 60.2655 32.5938 68.2035 32.5938C71.8362 32.5938 74.2131 31.4265 76.59 29.6308L74.4373 25.6802C72.7331 26.9821 70.8495 27.9698 68.2035 27.9698C63.4497 27.9698 60.5794 24.6926 60.5794 20.5176C60.5794 16.2527 63.4497 12.9755 68.2035 12.9755Z" fill="#042583"/>
<path d="M86.7714 14.6328C81.7933 14.6328 77.3086 18.2242 77.3086 23.5665C77.3086 28.9537 81.7485 32.5451 86.7714 32.5451C91.7943 32.5451 96.2342 28.9088 96.2342 23.5665C96.2342 18.2242 91.7943 14.6328 86.7714 14.6328ZM86.7714 28.2803C84.3048 28.2803 82.197 26.305 82.197 23.5665C82.197 20.8729 84.3496 18.8976 86.7714 18.8976C89.238 18.8976 91.3458 20.9178 91.3458 23.5665C91.3458 26.2601 89.238 28.2803 86.7714 28.2803Z" fill="#042583"/>
<path d="M103.63 18.763V14.992H98.7866V32.186H103.765V22.8482C103.765 20.5587 105.648 19.4812 107.532 19.4812C108.025 19.4812 108.922 19.5261 109.64 19.7057V14.7675C109.102 14.6777 108.922 14.6328 108.384 14.6328C106.814 14.6328 104.168 15.6205 103.63 18.763Z" fill="#042583"/>
<path d="M124.127 17.3264C122.961 15.7551 120.943 14.6328 118.656 14.6328C113.319 14.6328 110.404 18.6732 110.404 23.5216C110.404 28.5496 113.543 32.59 118.791 32.59C121.302 32.59 122.961 31.4677 124.172 29.7168V32.2309H129.15V15.0368H124.172V17.3264H124.127ZM119.777 28.5047C117.041 28.5047 115.337 26.305 115.337 23.5665C115.337 20.9178 116.862 18.7181 119.643 18.7181C122.333 18.7181 124.262 20.6485 124.262 23.8359C124.262 26.9335 122.244 28.5047 119.777 28.5047Z" fill="#042583"/>
<path d="M141.526 19.1221C142.378 19.1221 144.352 19.3017 146.056 20.828L148.343 17.1917C145.383 14.992 143.096 14.6328 141.302 14.6328C135.427 14.6328 131.705 18.4936 131.705 23.5665C131.705 28.6394 135.427 32.5002 141.302 32.5002C143.096 32.5002 145.383 32.1411 148.343 29.9413L146.056 26.305C144.397 27.8313 142.423 28.0109 141.526 28.0109C138.611 28.0109 136.683 26.1703 136.683 23.5665C136.683 20.9627 138.611 19.1221 141.526 19.1221Z" fill="#042583"/>
<path d="M155.61 7.94531H150.632V32.1875H155.61V7.94531Z" fill="#042583"/>
<path d="M168.434 28.4598C165.25 28.4598 163.277 26.8886 163.187 24.7337H177C177 17.91 172.426 14.6328 167.672 14.6328C162.155 14.6328 158.209 18.6283 158.209 23.7012C158.209 28.5945 161.707 32.59 168.03 32.59C170.363 32.59 173.592 31.8717 176.013 29.223L173.143 26.4845C171.977 27.562 170.228 28.4598 168.434 28.4598ZM167.627 18.6732C169.286 18.6732 171.529 19.5261 171.887 21.7259H163.277C163.905 19.3915 166.012 18.6732 167.627 18.6732Z" fill="#042583"/>
<path d="M22.6806 15.9833C22.0976 14.9957 21.0213 14.3672 19.8552 14.3672H17.0298C15.8638 14.3672 14.7874 14.9957 14.2044 15.9833L12.7693 18.4524C12.1863 19.4401 12.1863 20.6971 12.7693 21.7296L14.2044 24.1987C14.7874 25.1864 15.8638 25.8149 17.0298 25.8149H19.8552C21.0213 25.8149 22.0976 25.1864 22.6806 24.1987L24.1157 21.7296C24.6987 20.742 24.6987 19.485 24.1157 18.4524L22.6806 15.9833Z" fill="#0169B3"/>
<path d="M22.6823 30.3036C22.0993 29.316 21.023 28.6875 19.8569 28.6875H17.0315C15.8655 28.6875 14.7891 29.316 14.2061 30.3036L12.771 32.7728C12.188 33.7604 12.188 35.0174 12.771 36.05L14.2061 38.5191C14.7891 39.5067 15.8655 40.1352 17.0315 40.1352H19.8569C21.023 40.1352 22.0993 39.5067 22.6823 38.5191L24.1174 36.05C24.7005 35.0623 24.7005 33.8053 24.1174 32.7728L22.6823 30.3036Z" fill="#3F955C"/>
<path d="M35.0161 8.79584C34.433 7.80819 33.3567 7.17969 32.1907 7.17969H29.3653C28.1992 7.17969 27.1229 7.80819 26.5399 8.79584L25.1047 11.2649C24.5217 12.2526 24.5217 13.5096 25.1047 14.5421L26.5399 17.0112C27.1229 17.9989 28.1992 18.6274 29.3653 18.6274H32.1907C33.3567 18.6274 34.433 17.9989 35.0161 17.0112L36.4512 14.5421C37.0342 13.5545 37.0342 12.2975 36.4512 11.2649L35.0161 8.79584Z" fill="#F07E00"/>
<path d="M10.3486 8.79584C9.76556 7.80819 8.68922 7.17969 7.52319 7.17969H4.69777C3.53174 7.17969 2.4554 7.80819 1.87239 8.79584L0.437263 11.2649C-0.145754 12.2526 -0.145754 13.5096 0.437263 14.5421L1.87239 17.0112C2.4554 17.9989 3.53174 18.6274 4.69777 18.6274H7.52319C8.68922 18.6274 9.76556 17.9989 10.3486 17.0112L11.7837 14.5421C12.3667 13.5545 12.3667 12.2975 11.7837 11.2649L10.3486 8.79584Z" fill="#F9C200"/>
<path d="M35.0161 23.1161C34.433 22.1285 33.3567 21.5 32.1907 21.5H29.3653C28.1992 21.5 27.1229 22.1285 26.5399 23.1161L25.1047 25.5853C24.5217 26.5729 24.5217 27.8299 25.1047 28.8625L26.5399 31.3316C27.1229 32.3192 28.1992 32.9477 29.3653 32.9477H32.1907C33.3567 32.9477 34.433 32.3192 35.0161 31.3316L36.4512 28.8625C37.0342 27.8748 37.0342 26.6178 36.4512 25.5853L35.0161 23.1161Z" fill="#00C2FF"/>
<path d="M10.3486 23.1161C9.76556 22.1285 8.68922 21.5 7.52319 21.5H4.69777C3.53174 21.5 2.4554 22.1285 1.87239 23.1161L0.437263 25.5853C-0.145754 26.5729 -0.145754 27.8299 0.437263 28.8625L1.87239 31.3316C2.4554 32.3192 3.53174 32.9477 4.69777 32.9477H7.52319C8.68922 32.9477 9.76556 32.3192 10.3486 31.3316L11.7837 28.8625C12.3667 27.8748 12.3667 26.6178 11.7837 25.5853L10.3486 23.1161Z" fill="#C51D1D"/>
<path d="M22.6823 1.61615C22.0993 0.628504 21.023 0 19.8569 0H17.0315C15.8655 0 14.7891 0.628504 14.2061 1.61615L12.771 4.08526C12.188 5.07291 12.188 6.3299 12.771 7.36244L14.2061 9.83155C14.7891 10.8192 15.8655 11.4477 17.0315 11.4477H19.8569C21.023 11.4477 22.0993 10.8192 22.6823 9.83155L24.1174 7.36244C24.7005 6.3748 24.7005 5.1178 24.1174 4.08526L22.6823 1.61615Z" fill="#AC2CB7"/>
</svg>
